<svg xmlns="http://www.w3.org/2000/svg" version="1.1" xmlns:xlink="http://www.w3.org/1999/xlink" xmlns:svgjs="http://svgjs.com/svgjs" width="1440" height="560" preserveAspectRatio="none" viewBox="0 0 1440 560"><g mask="url(&quot;#SvgjsMask1349&quot;)" fill="none"><rect width="1440" height="560" x="0" y="0" fill="rgba(255, 255, 255, 1)"></rect><use xlink:href="#SvgjsG1351" transform="translate(0, 0)" fill="rgba(255, 166, 158, 1)"></use><use xlink:href="#SvgjsG1351" transform="translate(1410, 0)" fill="rgba(163, 177, 138, 1)"></use></g><defs><mask id="SvgjsMask1349"><rect width="1440" height="560" fill="#ffffff"></rect></mask><g id="SvgjsG1350"><path d="M7.72 6.88l-0.79 0.81 0.25 1.16 1.02 0.33 0.86-0.76-0.25-1.16-1.09-0.38zM0.46 8.92L2.53 8.48l-0.89-1.02 0.21-0.66L2.58 6.65l1.33 1.5L5.27 7.86l-1.06-1.07 1.44-0.31-0.94-1.04-1.95 0.42-0.54-0.57 0.25-0.62L3.78 4.39 2.37 2.8 2.53 1.96 3.36 1.79l1.44 1.67 0.34-1.31 0.75-0.16 0.51 0.59-0.63 1.91 0.93 1.04 0.01-0.03 0.44-1.36 0.97 1.02 0.43-1.32L7.19 2.36l0.19-0.71 0.75-0.16 0.89 1.01L9.62 0.46l0.83-0.18 0.51 0.63-0.66 2.03 1.33-0.28 0.48 0.46-0.24 0.75-1.99 0.42-0.43 1.36 1.4-0.3-0.41 1.42 1.35-0.29L12.41 4.56l0.72-0.16 0.46 0.52-0.4 1.29L15.25 5.77 15.83 6.34l-0.3 0.76-2.06 0.44 0.92 1.06-0.27 0.68-0.65 0.14L12.09 7.86l-1.36 0.29 1 1.06-1.48 0.31 0.95 1.1 2.12-0.45 0.41 0.54-0.14 0.7-1.37 0.28 1.4 1.65-0.25 0.73-0.77 0.17-1.42-1.6-0.4 1.27-0.73 0.16L9.6 13.55l0.66-1.96-1.02-1.05-0.48 1.33-0.95-1.06-0.39 1.38L8.77 13.73l-0.28 0.64-0.7 0.15L6.94 13.56l-0.66 1.96-0.81 0.17-0.5-0.67 0.61-1.91-1.29 0.27-0.47-0.54 0.22-0.68L5.99 11.75l0.45-1.42-1.36 0.29L5.57 9.25l-1.36 0.29L3.6 11.46l-0.77 0.16-0.42-0.53 0.4-1.28-2.06 0.44L0.18 9.67l0.28-0.75z"></path></g><g id="SvgjsG1351"><use xlink:href="#SvgjsG1350" transform="translate(0, 0) scale(3)" fill="rgba(163, 177, 138, 1)"></use><use xlink:href="#SvgjsG1350" transform="translate(0, 141) scale(3)" fill="rgba(255, 166, 158, 1)"></use><use xlink:href="#SvgjsG1350" transform="translate(0, 282) scale(3)" fill="rgba(255, 166, 158, 1)"></use><use xlink:href="#SvgjsG1350" transform="translate(0, 423) scale(3)" fill="rgba(163, 177, 138, 1)"></use><use xlink:href="#SvgjsG1350" transform="translate(141, 0) scale(3)" fill="rgba(255, 166, 158, 1)"></use><use xlink:href="#SvgjsG1350" transform="translate(141, 141) scale(3)" fill="rgba(163, 177, 138, 1)"></use><use xlink:href="#SvgjsG1350" transform="translate(141, 282) scale(3)" fill="rgba(163, 177, 138, 1)"></use><use xlink:href="#SvgjsG1350" transform="translate(141, 423) scale(3)" fill="rgba(255, 166, 158, 1)"></use><use xlink:href="#SvgjsG1350" transform="translate(282, 0) scale(3)" fill="rgba(163, 177, 138, 1)"></use><use xlink:href="#SvgjsG1350" transform="translate(282, 141) scale(3)" fill="rgba(255, 166, 158, 1)"></use><use xlink:href="#SvgjsG1350" transform="translate(282, 282) scale(3)" fill="rgba(255, 166, 158, 1)"></use><use xlink:href="#SvgjsG1350" transform="translate(282, 423) scale(3)" fill="rgba(163, 177, 138, 1)"></use><use xlink:href="#SvgjsG1350" transform="translate(423, 0) scale(3)" fill="rgba(255, 166, 158, 1)"></use><use xlink:href="#SvgjsG1350" transform="translate(423, 141) scale(3)" fill="rgba(255, 166, 158, 1)"></use><use xlink:href="#SvgjsG1350" transform="translate(423, 282) scale(3)" fill="rgba(255, 166, 158, 1)"></use><use xlink:href="#SvgjsG1350" transform="translate(423, 423) scale(3)" fill="rgba(163, 177, 138, 1)"></use><use xlink:href="#SvgjsG1350" transform="translate(564, 0) scale(3)" fill="rgba(255, 166, 158, 1)"></use><use xlink:href="#SvgjsG1350" transform="translate(564, 141) scale(3)" fill="rgba(255, 166, 158, 1)"></use><use xlink:href="#SvgjsG1350" transform="translate(564, 282) scale(3)" fill="rgba(255, 166, 158, 1)"></use><use xlink:href="#SvgjsG1350" transform="translate(564, 423) scale(3)" fill="rgba(255, 166, 158, 1)"></use><use xlink:href="#SvgjsG1350" transform="translate(705, 0) scale(3)" fill="rgba(255, 166, 158, 1)"></use><use xlink:href="#SvgjsG1350" transform="translate(705, 141) scale(3)" fill="rgba(255, 166, 158, 1)"></use><use xlink:href="#SvgjsG1350" transform="translate(705, 282) scale(3)" fill="rgba(163, 177, 138, 1)"></use><use xlink:href="#SvgjsG1350" transform="translate(705, 423) scale(3)" fill="rgba(255, 166, 158, 1)"></use><use xlink:href="#SvgjsG1350" transform="translate(846, 0) scale(3)" fill="rgba(163, 177, 138, 1)"></use><use xlink:href="#SvgjsG1350" transform="translate(846, 141) scale(3)" fill="rgba(255, 166, 158, 1)"></use><use xlink:href="#SvgjsG1350" transform="translate(846, 282) scale(3)" fill="rgba(255, 166, 158, 1)"></use><use xlink:href="#SvgjsG1350" transform="translate(846, 423) scale(3)" fill="rgba(255, 166, 158, 1)"></use><use xlink:href="#SvgjsG1350" transform="translate(987, 0) scale(3)" fill="rgba(255, 166, 158, 1)"></use><use xlink:href="#SvgjsG1350" transform="translate(987, 141) scale(3)" fill="rgba(255, 166, 158, 1)"></use><use xlink:href="#SvgjsG1350" transform="translate(987, 282) scale(3)" fill="rgba(163, 177, 138, 1)"></use><use xlink:href="#SvgjsG1350" transform="translate(987, 423) scale(3)" fill="rgba(255, 166, 158, 1)"></use><use xlink:href="#SvgjsG1350" transform="translate(1128, 0) scale(3)" fill="rgba(255, 166, 158, 1)"></use><use xlink:href="#SvgjsG1350" transform="translate(1128, 141) scale(3)" fill="rgba(163, 177, 138, 1)"></use><use xlink:href="#SvgjsG1350" transform="translate(1128, 282) scale(3)" fill="rgba(163, 177, 138, 1)"></use><use xlink:href="#SvgjsG1350" transform="translate(1128, 423) scale(3)" fill="rgba(255, 166, 158, 1)"></use><use xlink:href="#SvgjsG1350" transform="translate(1269, 0) scale(3)" fill="rgba(163, 177, 138, 1)"></use><use xlink:href="#SvgjsG1350" transform="translate(1269, 141) scale(3)" fill="rgba(255, 166, 158, 1)"></use><use xlink:href="#SvgjsG1350" transform="translate(1269, 282) scale(3)" fill="rgba(255, 166, 158, 1)"></use><use xlink:href="#SvgjsG1350" transform="translate(1269, 423) scale(3)" fill="rgba(255, 166, 158, 1)"></use></g></defs></svg>