<svg xmlns="http://www.w3.org/2000/svg" version="1.1" xmlns:xlink="http://www.w3.org/1999/xlink" xmlns:svgjs="http://svgjs.com/svgjs" width="1440" height="560" preserveAspectRatio="none" viewBox="0 0 1440 560"><g mask="url(&quot;#SvgjsMask1505&quot;)" fill="none"><rect width="1440" height="560" x="0" y="0" fill="rgba(255, 255, 255, 1)"></rect><use xlink:href="#SvgjsG1507" transform="translate(0, 0)" fill="rgba(255, 166, 158, 1)"></use></g><defs><mask id="SvgjsMask1505"><rect width="1440" height="560" fill="#ffffff"></rect></mask><g id="SvgjsG1506"><path d="M8.18 6.86l-1.04 0.44-0.23 1.16 0.82 0.71 1.08-0.37 0.23-1.16-0.86-0.78zM0.7 5.9L2.78 6.3l-0.43-1.28 0.46-0.53L3.54 4.64l0.64 1.9L5.54 6.81l-0.56-1.4 1.45 0.28-0.46-1.33-1.96-0.38-0.27-0.73 0.47-0.48L5.52 3.03 4.85 1.02 5.33 0.31 6.15 0.47l0.67 2.1 0.83-1.07 0.76 0.15 0.24 0.74-1.34 1.51 0.46 1.32 0.02-0.03 0.93-1.07 0.5 1.31 0.91-1.04L9.46 2.49l0.45-0.58 0.75 0.15 0.43 1.28L12.44 1.69l0.83 0.16 0.23 0.78-1.4 1.61 1.33 0.26 0.26 0.62-0.51 0.59-2-0.39-0.93 1.08 1.41 0.27-0.93 1.15 1.36 0.26L13.4 6.55l0.73 0.14 0.22 0.66-0.87 1.03L15.55 8.79 15.85 9.53l-0.56 0.59-2.07-0.41 0.43 1.34-0.52 0.52-0.65-0.12L11.82 9.47l-1.36-0.26 0.5 1.36-1.48-0.29 0.44 1.38 2.13 0.42 0.17 0.66-0.41 0.58-1.36-0.27 0.64 2.06-0.52 0.58-0.78-0.15-0.68-2.03-0.86 1.02-0.74-0.14L7.3 13.73l1.38-1.55-0.54-1.35-0.95 1.02-0.46-1.34-0.9 1.12L6.47 13.57l-0.51 0.48-0.7-0.13L4.86 12.7l-1.38 1.55-0.82-0.16-0.19-0.81 1.31-1.52-1.29-0.26-0.23-0.68 0.46-0.54L4.69 10.67l0.97-1.14-1.37-0.26L5.27 8.2l-1.36-0.27L2.6 9.46l-0.77-0.15-0.19-0.65 0.88-1.02-2.07-0.41L0.15 6.48l0.55-0.58z"></path></g><g id="SvgjsG1507"><use xlink:href="#SvgjsG1506" transform="translate(0, 0) scale(2.6)" fill="rgba(255, 166, 158, 1)"></use><use xlink:href="#SvgjsG1506" transform="translate(0, 166.4) scale(2.6)" fill="rgba(163, 177, 138, 1)"></use><use xlink:href="#SvgjsG1506" transform="translate(0, 332.8) scale(2.6)" fill="rgba(255, 166, 158, 1)"></use><use xlink:href="#SvgjsG1506" transform="translate(0, 499.20000000000005) scale(2.6)" fill="rgba(163, 177, 138, 1)"></use><use xlink:href="#SvgjsG1506" transform="translate(166.4, 0) scale(2.6)" fill="rgba(255, 166, 158, 1)"></use><use xlink:href="#SvgjsG1506" transform="translate(166.4, 166.4) scale(2.6)" fill="rgba(255, 166, 158, 1)"></use><use xlink:href="#SvgjsG1506" transform="translate(166.4, 332.8) scale(2.6)" fill="rgba(163, 177, 138, 1)"></use><use xlink:href="#SvgjsG1506" transform="translate(166.4, 499.20000000000005) scale(2.6)" fill="rgba(255, 166, 158, 1)"></use><use xlink:href="#SvgjsG1506" transform="translate(332.8, 0) scale(2.6)" fill="rgba(255, 166, 158, 1)"></use><use xlink:href="#SvgjsG1506" transform="translate(332.8, 166.4) scale(2.6)" fill="rgba(255, 166, 158, 1)"></use><use xlink:href="#SvgjsG1506" transform="translate(332.8, 332.8) scale(2.6)" fill="rgba(163, 177, 138, 1)"></use><use xlink:href="#SvgjsG1506" transform="translate(332.8, 499.20000000000005) scale(2.6)" fill="rgba(255, 166, 158, 1)"></use><use xlink:href="#SvgjsG1506" transform="translate(499.20000000000005, 0) scale(2.6)" fill="rgba(255, 166, 158, 1)"></use><use xlink:href="#SvgjsG1506" transform="translate(499.20000000000005, 166.4) scale(2.6)" fill="rgba(163, 177, 138, 1)"></use><use xlink:href="#SvgjsG1506" transform="translate(499.20000000000005, 332.8) scale(2.6)" fill="rgba(255, 166, 158, 1)"></use><use xlink:href="#SvgjsG1506" transform="translate(499.20000000000005, 499.20000000000005) scale(2.6)" fill="rgba(163, 177, 138, 1)"></use><use xlink:href="#SvgjsG1506" transform="translate(665.6, 0) scale(2.6)" fill="rgba(163, 177, 138, 1)"></use><use xlink:href="#SvgjsG1506" transform="translate(665.6, 166.4) scale(2.6)" fill="rgba(255, 166, 158, 1)"></use><use xlink:href="#SvgjsG1506" transform="translate(665.6, 332.8) scale(2.6)" fill="rgba(163, 177, 138, 1)"></use><use xlink:href="#SvgjsG1506" transform="translate(665.6, 499.20000000000005) scale(2.6)" fill="rgba(255, 166, 158, 1)"></use><use xlink:href="#SvgjsG1506" transform="translate(832, 0) scale(2.6)" fill="rgba(255, 166, 158, 1)"></use><use xlink:href="#SvgjsG1506" transform="translate(832, 166.4) scale(2.6)" fill="rgba(255, 166, 158, 1)"></use><use xlink:href="#SvgjsG1506" transform="translate(832, 332.8) scale(2.6)" fill="rgba(255, 166, 158, 1)"></use><use xlink:href="#SvgjsG1506" transform="translate(832, 499.20000000000005) scale(2.6)" fill="rgba(255, 166, 158, 1)"></use><use xlink:href="#SvgjsG1506" transform="translate(998.4000000000001, 0) scale(2.6)" fill="rgba(255, 166, 158, 1)"></use><use xlink:href="#SvgjsG1506" transform="translate(998.4000000000001, 166.4) scale(2.6)" fill="rgba(255, 166, 158, 1)"></use><use xlink:href="#SvgjsG1506" transform="translate(998.4000000000001, 332.8) scale(2.6)" fill="rgba(163, 177, 138, 1)"></use><use xlink:href="#SvgjsG1506" transform="translate(998.4000000000001, 499.20000000000005) scale(2.6)" fill="rgba(255, 166, 158, 1)"></use><use xlink:href="#SvgjsG1506" transform="translate(1164.8, 0) scale(2.6)" fill="rgba(163, 177, 138, 1)"></use><use xlink:href="#SvgjsG1506" transform="translate(1164.8, 166.4) scale(2.6)" fill="rgba(255, 166, 158, 1)"></use><use xlink:href="#SvgjsG1506" transform="translate(1164.8, 332.8) scale(2.6)" fill="rgba(255, 166, 158, 1)"></use><use xlink:href="#SvgjsG1506" transform="translate(1164.8, 499.20000000000005) scale(2.6)" fill="rgba(255, 166, 158, 1)"></use><use xlink:href="#SvgjsG1506" transform="translate(1331.2, 0) scale(2.6)" fill="rgba(255, 166, 158, 1)"></use><use xlink:href="#SvgjsG1506" transform="translate(1331.2, 166.4) scale(2.6)" fill="rgba(163, 177, 138, 1)"></use><use xlink:href="#SvgjsG1506" transform="translate(1331.2, 332.8) scale(2.6)" fill="rgba(255, 166, 158, 1)"></use><use xlink:href="#SvgjsG1506" transform="translate(1331.2, 499.20000000000005) scale(2.6)" fill="rgba(163, 177, 138, 1)"></use></g></defs></svg>